<?xml version="1.0" encoding="utf-8" standalone="no"?>
<!DOCTYPE svg PUBLIC "-//W3C//DTD SVG 1.1//EN"
  "http://www.w3.org/Graphics/SVG/1.1/DTD/svg11.dtd">
<svg xmlns:xlink="http://www.w3.org/1999/xlink" width="460.8pt" height="345.6pt" viewBox="0 0 460.8 345.6" xmlns="http://www.w3.org/2000/svg" version="1.1">
 <metadata>
  <rdf:RDF xmlns:dc="http://purl.org/dc/elements/1.1/" xmlns:cc="http://creativecommons.org/ns#" xmlns:rdf="http://www.w3.org/1999/02/22-rdf-syntax-ns#">
   <cc:Work>
    <dc:type rdf:resource="http://purl.org/dc/dcmitype/StillImage"/>
    <dc:date>2024-12-08T16:46:46.766230</dc:date>
    <dc:format>image/svg+xml</dc:format>
    <dc:creator>
     <cc:Agent>
      <dc:title>Matplotlib v3.8.4, https://matplotlib.org/</dc:title>
     </cc:Agent>
    </dc:creator>
   </cc:Work>
  </rdf:RDF>
 </metadata>
 <defs>
  <style type="text/css">*{stroke-linejoin: round; stroke-linecap: butt}</style>
 </defs>
 <g id="figure_1">
  <g id="patch_1">
   <path d="M 0 345.6 
L 460.8 345.6 
L 460.8 0 
L 0 0 
z
" style="fill: #ffffff"/>
  </g>
  <g id="axes_1">
   <g id="patch_2">
    <path d="M 57.6 307.584 
L 414.72 307.584 
L 414.72 41.472 
L 57.6 41.472 
z
" style="fill: #ffffff"/>
   </g>
   <g id="PathCollection_1">
    <defs>
     <path id="m26cb8faece" d="M 0 -3 
L -3 3 
L 3 3 
z
" style="stroke: #376a95"/>
    </defs>
    <g clip-path="url(#p2b3d423eb4)">
     <use xlink:href="#m26cb8faece" x="392.146364" y="53.568" style="fill: #376a95; stroke: #376a95"/>
     <use xlink:href="#m26cb8faece" x="367.487273" y="166.418908" style="fill: #376a95; stroke: #376a95"/>
     <use xlink:href="#m26cb8faece" x="360.441818" y="165.299969" style="fill: #376a95; stroke: #376a95"/>
     <use xlink:href="#m26cb8faece" x="351.383377" y="165.336106" style="fill: #376a95; stroke: #376a95"/>
     <use xlink:href="#m26cb8faece" x="328.737273" y="181.730436" style="fill: #376a95; stroke: #376a95"/>
     <use xlink:href="#m26cb8faece" x="322.396364" y="176.910527" style="fill: #376a95; stroke: #376a95"/>
     <use xlink:href="#m26cb8faece" x="315.14961" y="145.275563" style="fill: #376a95; stroke: #376a95"/>
     <use xlink:href="#m26cb8faece" x="297.032727" y="192.633914" style="fill: #376a95; stroke: #376a95"/>
     <use xlink:href="#m26cb8faece" x="254.76" y="206.460869" style="fill: #376a95; stroke: #376a95"/>
     <use xlink:href="#m26cb8faece" x="212.487273" y="205.039779" style="fill: #376a95; stroke: #376a95"/>
     <use xlink:href="#m26cb8faece" x="188.331429" y="242.706931" style="fill: #376a95; stroke: #376a95"/>
     <use xlink:href="#m26cb8faece" x="170.214545" y="271.323304" style="fill: #376a95; stroke: #376a95"/>
     <use xlink:href="#m26cb8faece" x="152.097662" y="262.245238" style="fill: #376a95; stroke: #376a95"/>
     <use xlink:href="#m26cb8faece" x="138.51" y="272.269739" style="fill: #376a95; stroke: #376a95"/>
     <use xlink:href="#m26cb8faece" x="133.980779" y="263.920271" style="fill: #376a95; stroke: #376a95"/>
     <use xlink:href="#m26cb8faece" x="127.941818" y="273.998151" style="fill: #376a95; stroke: #376a95"/>
     <use xlink:href="#m26cb8faece" x="119.487273" y="269.316504" style="fill: #376a95; stroke: #376a95"/>
     <use xlink:href="#m26cb8faece" x="106.805455" y="267.60024" style="fill: #376a95; stroke: #376a95"/>
     <use xlink:href="#m26cb8faece" x="85.669091" y="278.446185" style="fill: #376a95; stroke: #376a95"/>
    </g>
   </g>
   <g id="patch_3">
    <path d="M 73.832727 57.225694 
L 83.978182 53.821947 
L 83.978182 56.431486 
L 337.614545 56.431486 
L 337.614545 58.019902 
L 83.978182 58.019902 
L 83.978182 60.629441 
z
" clip-path="url(#p2b3d423eb4)" style="stroke: #000000; stroke-linejoin: miter"/>
   </g>
   <g id="patch_4">
    <path d="M 170.214545 279.603846 
L 172.750909 284.142176 
L 170.468182 284.142176 
L 170.468182 295.488 
L 169.960909 295.488 
L 169.960909 284.142176 
L 167.678182 284.142176 
z
" clip-path="url(#p2b3d423eb4)" style="fill: #006400; stroke: #008000; stroke-linejoin: miter"/>
   </g>
   <g id="patch_5">
    <path d="M 254.929091 200.183078 
L 252.392727 195.644748 
L 254.675455 195.644748 
L 254.675455 184.298924 
L 255.182727 184.298924 
L 255.182727 195.644748 
L 257.465455 195.644748 
z
" clip-path="url(#p2b3d423eb4)" style="fill: #006400; stroke: #008000; stroke-linejoin: miter"/>
   </g>
   <g id="patch_6">
    <path d="M 297.032727 200.183078 
L 299.569091 204.721407 
L 297.286364 204.721407 
L 297.286364 216.067231 
L 296.779091 216.067231 
L 296.779091 204.721407 
L 294.496364 204.721407 
z
" clip-path="url(#p2b3d423eb4)" style="fill: #006400; stroke: #008000; stroke-linejoin: miter"/>
   </g>
   <g id="patch_7">
    <path d="M 328.737273 188.837254 
L 331.273636 193.375583 
L 328.990909 193.375583 
L 328.990909 204.721407 
L 328.483636 204.721407 
L 328.483636 193.375583 
L 326.200909 193.375583 
z
" clip-path="url(#p2b3d423eb4)" style="fill: #006400; stroke: #008000; stroke-linejoin: miter"/>
   </g>
   <g id="matplotlib.axis_1">
    <g id="xtick_1">
     <g id="line2d_1">
      <defs>
       <path id="md253daccda" d="M 0 0 
L 0 3 
" style="stroke: #000000; stroke-width: 0.8"/>
      </defs>
      <g>
       <use xlink:href="#md253daccda" x="68.76" y="307.584" style="stroke: #000000; stroke-width: 0.8"/>
      </g>
     </g>
     <g id="text_1">
      <!-- 0.3 -->
      <g transform="translate(61.81 321.241812) scale(0.1 -0.1)">
       <defs>
        <path id="Arial-BoldMT-30" d="M 1756 4600 
Q 2422 4600 2797 4125 
Q 3244 3563 3244 2259 
Q 3244 959 2794 391 
Q 2422 -78 1756 -78 
Q 1088 -78 678 436 
Q 269 950 269 2269 
Q 269 3563 719 4131 
Q 1091 4600 1756 4600 
z
M 1756 3872 
Q 1597 3872 1472 3770 
Q 1347 3669 1278 3406 
Q 1188 3066 1188 2259 
Q 1188 1453 1269 1151 
Q 1350 850 1473 750 
Q 1597 650 1756 650 
Q 1916 650 2041 751 
Q 2166 853 2234 1116 
Q 2325 1453 2325 2259 
Q 2325 3066 2244 3367 
Q 2163 3669 2039 3770 
Q 1916 3872 1756 3872 
z
" transform="scale(0.015625)"/>
        <path id="Arial-BoldMT-2e" d="M 459 0 
L 459 878 
L 1338 878 
L 1338 0 
L 459 0 
z
" transform="scale(0.015625)"/>
        <path id="Arial-BoldMT-33" d="M 241 1216 
L 1091 1319 
Q 1131 994 1309 822 
Q 1488 650 1741 650 
Q 2013 650 2198 856 
Q 2384 1063 2384 1413 
Q 2384 1744 2206 1937 
Q 2028 2131 1772 2131 
Q 1603 2131 1369 2066 
L 1466 2781 
Q 1822 2772 2009 2936 
Q 2197 3100 2197 3372 
Q 2197 3603 2059 3740 
Q 1922 3878 1694 3878 
Q 1469 3878 1309 3722 
Q 1150 3566 1116 3266 
L 306 3403 
Q 391 3819 561 4067 
Q 731 4316 1036 4458 
Q 1341 4600 1719 4600 
Q 2366 4600 2756 4188 
Q 3078 3850 3078 3425 
Q 3078 2822 2419 2463 
Q 2813 2378 3048 2084 
Q 3284 1791 3284 1375 
Q 3284 772 2843 347 
Q 2403 -78 1747 -78 
Q 1125 -78 715 280 
Q 306 638 241 1216 
z
" transform="scale(0.015625)"/>
       </defs>
       <use xlink:href="#Arial-BoldMT-30"/>
       <use xlink:href="#Arial-BoldMT-2e" x="55.615234"/>
       <use xlink:href="#Arial-BoldMT-33" x="83.398438"/>
      </g>
     </g>
    </g>
    <g id="xtick_2">
     <g id="line2d_2">
      <g>
       <use xlink:href="#md253daccda" x="119.487273" y="307.584" style="stroke: #000000; stroke-width: 0.8"/>
      </g>
     </g>
     <g id="text_2">
      <!-- 0.4 -->
      <g transform="translate(112.537273 321.241812) scale(0.1 -0.1)">
       <defs>
        <path id="Arial-BoldMT-34" d="M 1994 0 
L 1994 922 
L 119 922 
L 119 1691 
L 2106 4600 
L 2844 4600 
L 2844 1694 
L 3413 1694 
L 3413 922 
L 2844 922 
L 2844 0 
L 1994 0 
z
M 1994 1694 
L 1994 3259 
L 941 1694 
L 1994 1694 
z
" transform="scale(0.015625)"/>
       </defs>
       <use xlink:href="#Arial-BoldMT-30"/>
       <use xlink:href="#Arial-BoldMT-2e" x="55.615234"/>
       <use xlink:href="#Arial-BoldMT-34" x="83.398438"/>
      </g>
     </g>
    </g>
    <g id="xtick_3">
     <g id="line2d_3">
      <g>
       <use xlink:href="#md253daccda" x="170.214545" y="307.584" style="stroke: #000000; stroke-width: 0.8"/>
      </g>
     </g>
     <g id="text_3">
      <!-- 0.5 -->
      <g transform="translate(163.264545 321.241812) scale(0.1 -0.1)">
       <defs>
        <path id="Arial-BoldMT-35" d="M 284 1178 
L 1159 1269 
Q 1197 972 1381 798 
Q 1566 625 1806 625 
Q 2081 625 2272 848 
Q 2463 1072 2463 1522 
Q 2463 1944 2273 2155 
Q 2084 2366 1781 2366 
Q 1403 2366 1103 2031 
L 391 2134 
L 841 4519 
L 3163 4519 
L 3163 3697 
L 1506 3697 
L 1369 2919 
Q 1663 3066 1969 3066 
Q 2553 3066 2959 2641 
Q 3366 2216 3366 1538 
Q 3366 972 3038 528 
Q 2591 -78 1797 -78 
Q 1163 -78 763 262 
Q 363 603 284 1178 
z
" transform="scale(0.015625)"/>
       </defs>
       <use xlink:href="#Arial-BoldMT-30"/>
       <use xlink:href="#Arial-BoldMT-2e" x="55.615234"/>
       <use xlink:href="#Arial-BoldMT-35" x="83.398438"/>
      </g>
     </g>
    </g>
    <g id="xtick_4">
     <g id="line2d_4">
      <g>
       <use xlink:href="#md253daccda" x="220.941818" y="307.584" style="stroke: #000000; stroke-width: 0.8"/>
      </g>
     </g>
     <g id="text_4">
      <!-- 0.6 -->
      <g transform="translate(213.991818 321.241812) scale(0.1 -0.1)">
       <defs>
        <path id="Arial-BoldMT-36" d="M 3247 3459 
L 2397 3366 
Q 2366 3628 2234 3753 
Q 2103 3878 1894 3878 
Q 1616 3878 1423 3628 
Q 1231 3378 1181 2588 
Q 1509 2975 1997 2975 
Q 2547 2975 2939 2556 
Q 3331 2138 3331 1475 
Q 3331 772 2918 347 
Q 2506 -78 1859 -78 
Q 1166 -78 719 461 
Q 272 1000 272 2228 
Q 272 3488 737 4044 
Q 1203 4600 1947 4600 
Q 2469 4600 2811 4308 
Q 3153 4016 3247 3459 
z
M 1256 1544 
Q 1256 1116 1453 883 
Q 1650 650 1903 650 
Q 2147 650 2309 840 
Q 2472 1031 2472 1466 
Q 2472 1913 2297 2120 
Q 2122 2328 1859 2328 
Q 1606 2328 1431 2129 
Q 1256 1931 1256 1544 
z
" transform="scale(0.015625)"/>
       </defs>
       <use xlink:href="#Arial-BoldMT-30"/>
       <use xlink:href="#Arial-BoldMT-2e" x="55.615234"/>
       <use xlink:href="#Arial-BoldMT-36" x="83.398438"/>
      </g>
     </g>
    </g>
    <g id="xtick_5">
     <g id="line2d_5">
      <g>
       <use xlink:href="#md253daccda" x="271.669091" y="307.584" style="stroke: #000000; stroke-width: 0.8"/>
      </g>
     </g>
     <g id="text_5">
      <!-- 0.7 -->
      <g transform="translate(264.719091 321.241812) scale(0.1 -0.1)">
       <defs>
        <path id="Arial-BoldMT-37" d="M 272 3703 
L 272 4519 
L 3275 4519 
L 3275 3881 
Q 2903 3516 2518 2831 
Q 2134 2147 1932 1376 
Q 1731 606 1734 0 
L 888 0 
Q 909 950 1279 1937 
Q 1650 2925 2269 3703 
L 272 3703 
z
" transform="scale(0.015625)"/>
       </defs>
       <use xlink:href="#Arial-BoldMT-30"/>
       <use xlink:href="#Arial-BoldMT-2e" x="55.615234"/>
       <use xlink:href="#Arial-BoldMT-37" x="83.398438"/>
      </g>
     </g>
    </g>
    <g id="xtick_6">
     <g id="line2d_6">
      <g>
       <use xlink:href="#md253daccda" x="322.396364" y="307.584" style="stroke: #000000; stroke-width: 0.8"/>
      </g>
     </g>
     <g id="text_6">
      <!-- 0.8 -->
      <g transform="translate(315.446364 321.241812) scale(0.1 -0.1)">
       <defs>
        <path id="Arial-BoldMT-38" d="M 1025 2472 
Q 684 2616 529 2867 
Q 375 3119 375 3419 
Q 375 3931 733 4265 
Q 1091 4600 1750 4600 
Q 2403 4600 2764 4265 
Q 3125 3931 3125 3419 
Q 3125 3100 2959 2851 
Q 2794 2603 2494 2472 
Q 2875 2319 3073 2025 
Q 3272 1731 3272 1347 
Q 3272 713 2867 316 
Q 2463 -81 1791 -81 
Q 1166 -81 750 247 
Q 259 634 259 1309 
Q 259 1681 443 1992 
Q 628 2303 1025 2472 
z
M 1206 3356 
Q 1206 3094 1354 2947 
Q 1503 2800 1750 2800 
Q 2000 2800 2150 2948 
Q 2300 3097 2300 3359 
Q 2300 3606 2151 3754 
Q 2003 3903 1759 3903 
Q 1506 3903 1356 3753 
Q 1206 3603 1206 3356 
z
M 1125 1394 
Q 1125 1031 1311 828 
Q 1497 625 1775 625 
Q 2047 625 2225 820 
Q 2403 1016 2403 1384 
Q 2403 1706 2222 1901 
Q 2041 2097 1763 2097 
Q 1441 2097 1283 1875 
Q 1125 1653 1125 1394 
z
" transform="scale(0.015625)"/>
       </defs>
       <use xlink:href="#Arial-BoldMT-30"/>
       <use xlink:href="#Arial-BoldMT-2e" x="55.615234"/>
       <use xlink:href="#Arial-BoldMT-38" x="83.398438"/>
      </g>
     </g>
    </g>
    <g id="xtick_7">
     <g id="line2d_7">
      <g>
       <use xlink:href="#md253daccda" x="373.123636" y="307.584" style="stroke: #000000; stroke-width: 0.8"/>
      </g>
     </g>
     <g id="text_7">
      <!-- 0.9 -->
      <g transform="translate(366.173636 321.241812) scale(0.1 -0.1)">
       <defs>
        <path id="Arial-BoldMT-39" d="M 291 1059 
L 1141 1153 
Q 1172 894 1303 769 
Q 1434 644 1650 644 
Q 1922 644 2112 894 
Q 2303 1144 2356 1931 
Q 2025 1547 1528 1547 
Q 988 1547 595 1964 
Q 203 2381 203 3050 
Q 203 3747 617 4173 
Q 1031 4600 1672 4600 
Q 2369 4600 2816 4061 
Q 3263 3522 3263 2288 
Q 3263 1031 2797 475 
Q 2331 -81 1584 -81 
Q 1047 -81 715 205 
Q 384 491 291 1059 
z
M 2278 2978 
Q 2278 3403 2083 3637 
Q 1888 3872 1631 3872 
Q 1388 3872 1227 3680 
Q 1066 3488 1066 3050 
Q 1066 2606 1241 2398 
Q 1416 2191 1678 2191 
Q 1931 2191 2104 2391 
Q 2278 2591 2278 2978 
z
" transform="scale(0.015625)"/>
       </defs>
       <use xlink:href="#Arial-BoldMT-30"/>
       <use xlink:href="#Arial-BoldMT-2e" x="55.615234"/>
       <use xlink:href="#Arial-BoldMT-39" x="83.398438"/>
      </g>
     </g>
    </g>
    <g id="xtick_8">
     <g id="line2d_8">
      <defs>
       <path id="m2f56bf609d" d="M 0 0 
L 0 2 
" style="stroke: #000000; stroke-width: 0.6"/>
      </defs>
      <g>
       <use xlink:href="#m2f56bf609d" x="58.614545" y="307.584" style="stroke: #000000; stroke-width: 0.6"/>
      </g>
     </g>
    </g>
    <g id="xtick_9">
     <g id="line2d_9">
      <g>
       <use xlink:href="#m2f56bf609d" x="78.905455" y="307.584" style="stroke: #000000; stroke-width: 0.6"/>
      </g>
     </g>
    </g>
    <g id="xtick_10">
     <g id="line2d_10">
      <g>
       <use xlink:href="#m2f56bf609d" x="89.050909" y="307.584" style="stroke: #000000; stroke-width: 0.6"/>
      </g>
     </g>
    </g>
    <g id="xtick_11">
     <g id="line2d_11">
      <g>
       <use xlink:href="#m2f56bf609d" x="99.196364" y="307.584" style="stroke: #000000; stroke-width: 0.6"/>
      </g>
     </g>
    </g>
    <g id="xtick_12">
     <g id="line2d_12">
      <g>
       <use xlink:href="#m2f56bf609d" x="109.341818" y="307.584" style="stroke: #000000; stroke-width: 0.6"/>
      </g>
     </g>
    </g>
    <g id="xtick_13">
     <g id="line2d_13">
      <g>
       <use xlink:href="#m2f56bf609d" x="129.632727" y="307.584" style="stroke: #000000; stroke-width: 0.6"/>
      </g>
     </g>
    </g>
    <g id="xtick_14">
     <g id="line2d_14">
      <g>
       <use xlink:href="#m2f56bf609d" x="139.778182" y="307.584" style="stroke: #000000; stroke-width: 0.6"/>
      </g>
     </g>
    </g>
    <g id="xtick_15">
     <g id="line2d_15">
      <g>
       <use xlink:href="#m2f56bf609d" x="149.923636" y="307.584" style="stroke: #000000; stroke-width: 0.6"/>
      </g>
     </g>
    </g>
    <g id="xtick_16">
     <g id="line2d_16">
      <g>
       <use xlink:href="#m2f56bf609d" x="160.069091" y="307.584" style="stroke: #000000; stroke-width: 0.6"/>
      </g>
     </g>
    </g>
    <g id="xtick_17">
     <g id="line2d_17">
      <g>
       <use xlink:href="#m2f56bf609d" x="180.36" y="307.584" style="stroke: #000000; stroke-width: 0.6"/>
      </g>
     </g>
    </g>
    <g id="xtick_18">
     <g id="line2d_18">
      <g>
       <use xlink:href="#m2f56bf609d" x="190.505455" y="307.584" style="stroke: #000000; stroke-width: 0.6"/>
      </g>
     </g>
    </g>
    <g id="xtick_19">
     <g id="line2d_19">
      <g>
       <use xlink:href="#m2f56bf609d" x="200.650909" y="307.584" style="stroke: #000000; stroke-width: 0.6"/>
      </g>
     </g>
    </g>
    <g id="xtick_20">
     <g id="line2d_20">
      <g>
       <use xlink:href="#m2f56bf609d" x="210.796364" y="307.584" style="stroke: #000000; stroke-width: 0.6"/>
      </g>
     </g>
    </g>
    <g id="xtick_21">
     <g id="line2d_21">
      <g>
       <use xlink:href="#m2f56bf609d" x="231.087273" y="307.584" style="stroke: #000000; stroke-width: 0.6"/>
      </g>
     </g>
    </g>
    <g id="xtick_22">
     <g id="line2d_22">
      <g>
       <use xlink:href="#m2f56bf609d" x="241.232727" y="307.584" style="stroke: #000000; stroke-width: 0.6"/>
      </g>
     </g>
    </g>
    <g id="xtick_23">
     <g id="line2d_23">
      <g>
       <use xlink:href="#m2f56bf609d" x="251.378182" y="307.584" style="stroke: #000000; stroke-width: 0.6"/>
      </g>
     </g>
    </g>
    <g id="xtick_24">
     <g id="line2d_24">
      <g>
       <use xlink:href="#m2f56bf609d" x="261.523636" y="307.584" style="stroke: #000000; stroke-width: 0.6"/>
      </g>
     </g>
    </g>
    <g id="xtick_25">
     <g id="line2d_25">
      <g>
       <use xlink:href="#m2f56bf609d" x="281.814545" y="307.584" style="stroke: #000000; stroke-width: 0.6"/>
      </g>
     </g>
    </g>
    <g id="xtick_26">
     <g id="line2d_26">
      <g>
       <use xlink:href="#m2f56bf609d" x="291.96" y="307.584" style="stroke: #000000; stroke-width: 0.6"/>
      </g>
     </g>
    </g>
    <g id="xtick_27">
     <g id="line2d_27">
      <g>
       <use xlink:href="#m2f56bf609d" x="302.105455" y="307.584" style="stroke: #000000; stroke-width: 0.6"/>
      </g>
     </g>
    </g>
    <g id="xtick_28">
     <g id="line2d_28">
      <g>
       <use xlink:href="#m2f56bf609d" x="312.250909" y="307.584" style="stroke: #000000; stroke-width: 0.6"/>
      </g>
     </g>
    </g>
    <g id="xtick_29">
     <g id="line2d_29">
      <g>
       <use xlink:href="#m2f56bf609d" x="332.541818" y="307.584" style="stroke: #000000; stroke-width: 0.6"/>
      </g>
     </g>
    </g>
    <g id="xtick_30">
     <g id="line2d_30">
      <g>
       <use xlink:href="#m2f56bf609d" x="342.687273" y="307.584" style="stroke: #000000; stroke-width: 0.6"/>
      </g>
     </g>
    </g>
    <g id="xtick_31">
     <g id="line2d_31">
      <g>
       <use xlink:href="#m2f56bf609d" x="352.832727" y="307.584" style="stroke: #000000; stroke-width: 0.6"/>
      </g>
     </g>
    </g>
    <g id="xtick_32">
     <g id="line2d_32">
      <g>
       <use xlink:href="#m2f56bf609d" x="362.978182" y="307.584" style="stroke: #000000; stroke-width: 0.6"/>
      </g>
     </g>
    </g>
    <g id="xtick_33">
     <g id="line2d_33">
      <g>
       <use xlink:href="#m2f56bf609d" x="383.269091" y="307.584" style="stroke: #000000; stroke-width: 0.6"/>
      </g>
     </g>
    </g>
    <g id="xtick_34">
     <g id="line2d_34">
      <g>
       <use xlink:href="#m2f56bf609d" x="393.414545" y="307.584" style="stroke: #000000; stroke-width: 0.6"/>
      </g>
     </g>
    </g>
    <g id="xtick_35">
     <g id="line2d_35">
      <g>
       <use xlink:href="#m2f56bf609d" x="403.56" y="307.584" style="stroke: #000000; stroke-width: 0.6"/>
      </g>
     </g>
    </g>
    <g id="xtick_36">
     <g id="line2d_36">
      <g>
       <use xlink:href="#m2f56bf609d" x="413.705455" y="307.584" style="stroke: #000000; stroke-width: 0.6"/>
      </g>
     </g>
    </g>
    <g id="text_8">
     <!-- Co/O ratio -->
     <g transform="translate(207.160313 335.804625) scale(0.12 -0.12)">
      <defs>
       <path id="Arial-BoldMT-43" d="M 3397 1684 
L 4294 1400 
Q 4088 650 3608 286 
Q 3128 -78 2391 -78 
Q 1478 -78 890 545 
Q 303 1169 303 2250 
Q 303 3394 893 4026 
Q 1484 4659 2447 4659 
Q 3288 4659 3813 4163 
Q 4125 3869 4281 3319 
L 3366 3100 
Q 3284 3456 3026 3662 
Q 2769 3869 2400 3869 
Q 1891 3869 1573 3503 
Q 1256 3138 1256 2319 
Q 1256 1450 1568 1081 
Q 1881 713 2381 713 
Q 2750 713 3015 947 
Q 3281 1181 3397 1684 
z
" transform="scale(0.015625)"/>
       <path id="Arial-BoldMT-6f" d="M 256 1706 
Q 256 2144 472 2553 
Q 688 2963 1083 3178 
Q 1478 3394 1966 3394 
Q 2719 3394 3200 2905 
Q 3681 2416 3681 1669 
Q 3681 916 3195 420 
Q 2709 -75 1972 -75 
Q 1516 -75 1102 131 
Q 688 338 472 736 
Q 256 1134 256 1706 
z
M 1156 1659 
Q 1156 1166 1390 903 
Q 1625 641 1969 641 
Q 2313 641 2545 903 
Q 2778 1166 2778 1666 
Q 2778 2153 2545 2415 
Q 2313 2678 1969 2678 
Q 1625 2678 1390 2415 
Q 1156 2153 1156 1659 
z
" transform="scale(0.015625)"/>
       <path id="Arial-BoldMT-2f" d="M -9 -78 
L 1125 4659 
L 1784 4659 
L 638 -78 
L -9 -78 
z
" transform="scale(0.015625)"/>
       <path id="Arial-BoldMT-4f" d="M 278 2263 
Q 278 2963 488 3438 
Q 644 3788 914 4066 
Q 1184 4344 1506 4478 
Q 1934 4659 2494 4659 
Q 3506 4659 4114 4031 
Q 4722 3403 4722 2284 
Q 4722 1175 4119 548 
Q 3516 -78 2506 -78 
Q 1484 -78 881 545 
Q 278 1169 278 2263 
z
M 1231 2294 
Q 1231 1516 1590 1114 
Q 1950 713 2503 713 
Q 3056 713 3411 1111 
Q 3766 1509 3766 2306 
Q 3766 3094 3420 3481 
Q 3075 3869 2503 3869 
Q 1931 3869 1581 3476 
Q 1231 3084 1231 2294 
z
" transform="scale(0.015625)"/>
       <path id="Arial-BoldMT-20" transform="scale(0.015625)"/>
       <path id="Arial-BoldMT-72" d="M 1300 0 
L 422 0 
L 422 3319 
L 1238 3319 
L 1238 2847 
Q 1447 3181 1614 3287 
Q 1781 3394 1994 3394 
Q 2294 3394 2572 3228 
L 2300 2463 
Q 2078 2606 1888 2606 
Q 1703 2606 1575 2504 
Q 1447 2403 1373 2137 
Q 1300 1872 1300 1025 
L 1300 0 
z
" transform="scale(0.015625)"/>
       <path id="Arial-BoldMT-61" d="M 1116 2306 
L 319 2450 
Q 453 2931 781 3162 
Q 1109 3394 1756 3394 
Q 2344 3394 2631 3255 
Q 2919 3116 3036 2902 
Q 3153 2688 3153 2116 
L 3144 1091 
Q 3144 653 3186 445 
Q 3228 238 3344 0 
L 2475 0 
Q 2441 88 2391 259 
Q 2369 338 2359 363 
Q 2134 144 1878 34 
Q 1622 -75 1331 -75 
Q 819 -75 523 203 
Q 228 481 228 906 
Q 228 1188 362 1408 
Q 497 1628 739 1745 
Q 981 1863 1438 1950 
Q 2053 2066 2291 2166 
L 2291 2253 
Q 2291 2506 2166 2614 
Q 2041 2722 1694 2722 
Q 1459 2722 1328 2630 
Q 1197 2538 1116 2306 
z
M 2291 1594 
Q 2122 1538 1756 1459 
Q 1391 1381 1278 1306 
Q 1106 1184 1106 997 
Q 1106 813 1243 678 
Q 1381 544 1594 544 
Q 1831 544 2047 700 
Q 2206 819 2256 991 
Q 2291 1103 2291 1419 
L 2291 1594 
z
" transform="scale(0.015625)"/>
       <path id="Arial-BoldMT-74" d="M 1981 3319 
L 1981 2619 
L 1381 2619 
L 1381 1281 
Q 1381 875 1398 808 
Q 1416 741 1477 697 
Q 1538 653 1625 653 
Q 1747 653 1978 738 
L 2053 56 
Q 1747 -75 1359 -75 
Q 1122 -75 931 4 
Q 741 84 652 211 
Q 563 338 528 553 
Q 500 706 500 1172 
L 500 2619 
L 97 2619 
L 97 3319 
L 500 3319 
L 500 3978 
L 1381 4491 
L 1381 3319 
L 1981 3319 
z
" transform="scale(0.015625)"/>
       <path id="Arial-BoldMT-69" d="M 459 3769 
L 459 4581 
L 1338 4581 
L 1338 3769 
L 459 3769 
z
M 459 0 
L 459 3319 
L 1338 3319 
L 1338 0 
L 459 0 
z
" transform="scale(0.015625)"/>
      </defs>
      <use xlink:href="#Arial-BoldMT-43"/>
      <use xlink:href="#Arial-BoldMT-6f" x="72.216797"/>
      <use xlink:href="#Arial-BoldMT-2f" x="133.300781"/>
      <use xlink:href="#Arial-BoldMT-4f" x="161.083984"/>
      <use xlink:href="#Arial-BoldMT-20" x="238.867188"/>
      <use xlink:href="#Arial-BoldMT-72" x="266.650391"/>
      <use xlink:href="#Arial-BoldMT-61" x="305.566406"/>
      <use xlink:href="#Arial-BoldMT-74" x="361.181641"/>
      <use xlink:href="#Arial-BoldMT-69" x="394.482422"/>
      <use xlink:href="#Arial-BoldMT-6f" x="422.265625"/>
     </g>
    </g>
   </g>
   <g id="matplotlib.axis_2">
    <g id="ytick_1">
     <g id="line2d_37">
      <defs>
       <path id="mcea85cf970" d="M 0 0 
L -3 0 
" style="stroke: #000000; stroke-width: 0.8"/>
      </defs>
      <g>
       <use xlink:href="#mcea85cf970" x="57.6" y="284.142176" style="stroke: #000000; stroke-width: 0.8"/>
      </g>
     </g>
     <g id="text_9">
      <!-- −1.8 -->
      <g transform="translate(31.359375 287.721082) scale(0.1 -0.1)">
       <defs>
        <path id="Arial-BoldMT-2212" d="M 266 1850 
L 266 2672 
L 3469 2672 
L 3469 1850 
L 266 1850 
z
" transform="scale(0.015625)"/>
        <path id="Arial-BoldMT-31" d="M 2519 0 
L 1641 0 
L 1641 3309 
Q 1159 2859 506 2644 
L 506 3441 
Q 850 3553 1253 3867 
Q 1656 4181 1806 4600 
L 2519 4600 
L 2519 0 
z
" transform="scale(0.015625)"/>
       </defs>
       <use xlink:href="#Arial-BoldMT-2212"/>
       <use xlink:href="#Arial-BoldMT-31" x="58.398438"/>
       <use xlink:href="#Arial-BoldMT-2e" x="114.013672"/>
       <use xlink:href="#Arial-BoldMT-38" x="141.796875"/>
      </g>
     </g>
    </g>
    <g id="ytick_2">
     <g id="line2d_38">
      <g>
       <use xlink:href="#mcea85cf970" x="57.6" y="238.75888" style="stroke: #000000; stroke-width: 0.8"/>
      </g>
     </g>
     <g id="text_10">
      <!-- −1.6 -->
      <g transform="translate(31.359375 242.337786) scale(0.1 -0.1)">
       <use xlink:href="#Arial-BoldMT-2212"/>
       <use xlink:href="#Arial-BoldMT-31" x="58.398438"/>
       <use xlink:href="#Arial-BoldMT-2e" x="114.013672"/>
       <use xlink:href="#Arial-BoldMT-36" x="141.796875"/>
      </g>
     </g>
    </g>
    <g id="ytick_3">
     <g id="line2d_39">
      <g>
       <use xlink:href="#mcea85cf970" x="57.6" y="193.375583" style="stroke: #000000; stroke-width: 0.8"/>
      </g>
     </g>
     <g id="text_11">
      <!-- −1.4 -->
      <g transform="translate(31.359375 196.954489) scale(0.1 -0.1)">
       <use xlink:href="#Arial-BoldMT-2212"/>
       <use xlink:href="#Arial-BoldMT-31" x="58.398438"/>
       <use xlink:href="#Arial-BoldMT-2e" x="114.013672"/>
       <use xlink:href="#Arial-BoldMT-34" x="141.796875"/>
      </g>
     </g>
    </g>
    <g id="ytick_4">
     <g id="line2d_40">
      <g>
       <use xlink:href="#mcea85cf970" x="57.6" y="147.992287" style="stroke: #000000; stroke-width: 0.8"/>
      </g>
     </g>
     <g id="text_12">
      <!-- −1.2 -->
      <g transform="translate(31.359375 151.571193) scale(0.1 -0.1)">
       <defs>
        <path id="Arial-BoldMT-32" d="M 3238 816 
L 3238 0 
L 159 0 
Q 209 463 459 877 
Q 709 1291 1447 1975 
Q 2041 2528 2175 2725 
Q 2356 2997 2356 3263 
Q 2356 3556 2198 3714 
Q 2041 3872 1763 3872 
Q 1488 3872 1325 3706 
Q 1163 3541 1138 3156 
L 263 3244 
Q 341 3969 753 4284 
Q 1166 4600 1784 4600 
Q 2463 4600 2850 4234 
Q 3238 3869 3238 3325 
Q 3238 3016 3127 2736 
Q 3016 2456 2775 2150 
Q 2616 1947 2200 1565 
Q 1784 1184 1673 1059 
Q 1563 934 1494 816 
L 3238 816 
z
" transform="scale(0.015625)"/>
       </defs>
       <use xlink:href="#Arial-BoldMT-2212"/>
       <use xlink:href="#Arial-BoldMT-31" x="58.398438"/>
       <use xlink:href="#Arial-BoldMT-2e" x="114.013672"/>
       <use xlink:href="#Arial-BoldMT-32" x="141.796875"/>
      </g>
     </g>
    </g>
    <g id="ytick_5">
     <g id="line2d_41">
      <g>
       <use xlink:href="#mcea85cf970" x="57.6" y="102.60899" style="stroke: #000000; stroke-width: 0.8"/>
      </g>
     </g>
     <g id="text_13">
      <!-- −1.0 -->
      <g transform="translate(31.359375 106.187897) scale(0.1 -0.1)">
       <use xlink:href="#Arial-BoldMT-2212"/>
       <use xlink:href="#Arial-BoldMT-31" x="58.398438"/>
       <use xlink:href="#Arial-BoldMT-2e" x="114.013672"/>
       <use xlink:href="#Arial-BoldMT-30" x="141.796875"/>
      </g>
     </g>
    </g>
    <g id="ytick_6">
     <g id="line2d_42">
      <g>
       <use xlink:href="#mcea85cf970" x="57.6" y="57.225694" style="stroke: #000000; stroke-width: 0.8"/>
      </g>
     </g>
     <g id="text_14">
      <!-- −0.8 -->
      <g transform="translate(31.359375 60.8046) scale(0.1 -0.1)">
       <use xlink:href="#Arial-BoldMT-2212"/>
       <use xlink:href="#Arial-BoldMT-30" x="58.398438"/>
       <use xlink:href="#Arial-BoldMT-2e" x="114.013672"/>
       <use xlink:href="#Arial-BoldMT-38" x="141.796875"/>
      </g>
     </g>
    </g>
    <g id="ytick_7">
     <g id="line2d_43">
      <defs>
       <path id="m9f0c24cdbb" d="M 0 0 
L -2 0 
" style="stroke: #000000; stroke-width: 0.6"/>
      </defs>
      <g>
       <use xlink:href="#m9f0c24cdbb" x="57.6" y="306.833824" style="stroke: #000000; stroke-width: 0.6"/>
      </g>
     </g>
    </g>
    <g id="ytick_8">
     <g id="line2d_44">
      <g>
       <use xlink:href="#m9f0c24cdbb" x="57.6" y="295.488" style="stroke: #000000; stroke-width: 0.6"/>
      </g>
     </g>
    </g>
    <g id="ytick_9">
     <g id="line2d_45">
      <g>
       <use xlink:href="#m9f0c24cdbb" x="57.6" y="272.796352" style="stroke: #000000; stroke-width: 0.6"/>
      </g>
     </g>
    </g>
    <g id="ytick_10">
     <g id="line2d_46">
      <g>
       <use xlink:href="#m9f0c24cdbb" x="57.6" y="261.450528" style="stroke: #000000; stroke-width: 0.6"/>
      </g>
     </g>
    </g>
    <g id="ytick_11">
     <g id="line2d_47">
      <g>
       <use xlink:href="#m9f0c24cdbb" x="57.6" y="250.104704" style="stroke: #000000; stroke-width: 0.6"/>
      </g>
     </g>
    </g>
    <g id="ytick_12">
     <g id="line2d_48">
      <g>
       <use xlink:href="#m9f0c24cdbb" x="57.6" y="227.413055" style="stroke: #000000; stroke-width: 0.6"/>
      </g>
     </g>
    </g>
    <g id="ytick_13">
     <g id="line2d_49">
      <g>
       <use xlink:href="#m9f0c24cdbb" x="57.6" y="216.067231" style="stroke: #000000; stroke-width: 0.6"/>
      </g>
     </g>
    </g>
    <g id="ytick_14">
     <g id="line2d_50">
      <g>
       <use xlink:href="#m9f0c24cdbb" x="57.6" y="204.721407" style="stroke: #000000; stroke-width: 0.6"/>
      </g>
     </g>
    </g>
    <g id="ytick_15">
     <g id="line2d_51">
      <g>
       <use xlink:href="#m9f0c24cdbb" x="57.6" y="182.029759" style="stroke: #000000; stroke-width: 0.6"/>
      </g>
     </g>
    </g>
    <g id="ytick_16">
     <g id="line2d_52">
      <g>
       <use xlink:href="#m9f0c24cdbb" x="57.6" y="170.683935" style="stroke: #000000; stroke-width: 0.6"/>
      </g>
     </g>
    </g>
    <g id="ytick_17">
     <g id="line2d_53">
      <g>
       <use xlink:href="#m9f0c24cdbb" x="57.6" y="159.338111" style="stroke: #000000; stroke-width: 0.6"/>
      </g>
     </g>
    </g>
    <g id="ytick_18">
     <g id="line2d_54">
      <g>
       <use xlink:href="#m9f0c24cdbb" x="57.6" y="136.646463" style="stroke: #000000; stroke-width: 0.6"/>
      </g>
     </g>
    </g>
    <g id="ytick_19">
     <g id="line2d_55">
      <g>
       <use xlink:href="#m9f0c24cdbb" x="57.6" y="125.300639" style="stroke: #000000; stroke-width: 0.6"/>
      </g>
     </g>
    </g>
    <g id="ytick_20">
     <g id="line2d_56">
      <g>
       <use xlink:href="#m9f0c24cdbb" x="57.6" y="113.954815" style="stroke: #000000; stroke-width: 0.6"/>
      </g>
     </g>
    </g>
    <g id="ytick_21">
     <g id="line2d_57">
      <g>
       <use xlink:href="#m9f0c24cdbb" x="57.6" y="91.263166" style="stroke: #000000; stroke-width: 0.6"/>
      </g>
     </g>
    </g>
    <g id="ytick_22">
     <g id="line2d_58">
      <g>
       <use xlink:href="#m9f0c24cdbb" x="57.6" y="79.917342" style="stroke: #000000; stroke-width: 0.6"/>
      </g>
     </g>
    </g>
    <g id="ytick_23">
     <g id="line2d_59">
      <g>
       <use xlink:href="#m9f0c24cdbb" x="57.6" y="68.571518" style="stroke: #000000; stroke-width: 0.6"/>
      </g>
     </g>
    </g>
    <g id="ytick_24">
     <g id="line2d_60">
      <g>
       <use xlink:href="#m9f0c24cdbb" x="57.6" y="45.87987" style="stroke: #000000; stroke-width: 0.6"/>
      </g>
     </g>
    </g>
    <g id="text_15">
     <!-- Energy per atom (eV) -->
     <g transform="translate(24.83375 234.873937) rotate(-90) scale(0.12 -0.12)">
      <defs>
       <path id="Arial-BoldMT-45" d="M 466 0 
L 466 4581 
L 3863 4581 
L 3863 3806 
L 1391 3806 
L 1391 2791 
L 3691 2791 
L 3691 2019 
L 1391 2019 
L 1391 772 
L 3950 772 
L 3950 0 
L 466 0 
z
" transform="scale(0.015625)"/>
       <path id="Arial-BoldMT-6e" d="M 3478 0 
L 2600 0 
L 2600 1694 
Q 2600 2231 2544 2389 
Q 2488 2547 2361 2634 
Q 2234 2722 2056 2722 
Q 1828 2722 1647 2597 
Q 1466 2472 1398 2265 
Q 1331 2059 1331 1503 
L 1331 0 
L 453 0 
L 453 3319 
L 1269 3319 
L 1269 2831 
Q 1703 3394 2363 3394 
Q 2653 3394 2893 3289 
Q 3134 3184 3257 3021 
Q 3381 2859 3429 2653 
Q 3478 2447 3478 2063 
L 3478 0 
z
" transform="scale(0.015625)"/>
       <path id="Arial-BoldMT-65" d="M 2381 1056 
L 3256 909 
Q 3088 428 2723 176 
Q 2359 -75 1813 -75 
Q 947 -75 531 491 
Q 203 944 203 1634 
Q 203 2459 634 2926 
Q 1066 3394 1725 3394 
Q 2466 3394 2894 2905 
Q 3322 2416 3303 1406 
L 1103 1406 
Q 1113 1016 1316 798 
Q 1519 581 1822 581 
Q 2028 581 2168 693 
Q 2309 806 2381 1056 
z
M 2431 1944 
Q 2422 2325 2234 2523 
Q 2047 2722 1778 2722 
Q 1491 2722 1303 2513 
Q 1116 2303 1119 1944 
L 2431 1944 
z
" transform="scale(0.015625)"/>
       <path id="Arial-BoldMT-67" d="M 378 -219 
L 1381 -341 
Q 1406 -516 1497 -581 
Q 1622 -675 1891 -675 
Q 2234 -675 2406 -572 
Q 2522 -503 2581 -350 
Q 2622 -241 2622 53 
L 2622 538 
Q 2228 0 1628 0 
Q 959 0 569 566 
Q 263 1013 263 1678 
Q 263 2513 664 2953 
Q 1066 3394 1663 3394 
Q 2278 3394 2678 2853 
L 2678 3319 
L 3500 3319 
L 3500 341 
Q 3500 -247 3403 -537 
Q 3306 -828 3131 -993 
Q 2956 -1159 2664 -1253 
Q 2372 -1347 1925 -1347 
Q 1081 -1347 728 -1058 
Q 375 -769 375 -325 
Q 375 -281 378 -219 
z
M 1163 1728 
Q 1163 1200 1367 954 
Q 1572 709 1872 709 
Q 2194 709 2416 961 
Q 2638 1213 2638 1706 
Q 2638 2222 2425 2472 
Q 2213 2722 1888 2722 
Q 1572 2722 1367 2476 
Q 1163 2231 1163 1728 
z
" transform="scale(0.015625)"/>
       <path id="Arial-BoldMT-79" d="M 44 3319 
L 978 3319 
L 1772 963 
L 2547 3319 
L 3456 3319 
L 2284 125 
L 2075 -453 
Q 1959 -744 1854 -897 
Q 1750 -1050 1614 -1145 
Q 1478 -1241 1279 -1294 
Q 1081 -1347 831 -1347 
Q 578 -1347 334 -1294 
L 256 -606 
Q 463 -647 628 -647 
Q 934 -647 1081 -467 
Q 1228 -288 1306 -9 
L 44 3319 
z
" transform="scale(0.015625)"/>
       <path id="Arial-BoldMT-70" d="M 434 3319 
L 1253 3319 
L 1253 2831 
Q 1413 3081 1684 3237 
Q 1956 3394 2288 3394 
Q 2866 3394 3269 2941 
Q 3672 2488 3672 1678 
Q 3672 847 3265 386 
Q 2859 -75 2281 -75 
Q 2006 -75 1782 34 
Q 1559 144 1313 409 
L 1313 -1263 
L 434 -1263 
L 434 3319 
z
M 1303 1716 
Q 1303 1156 1525 889 
Q 1747 622 2066 622 
Q 2372 622 2575 867 
Q 2778 1113 2778 1672 
Q 2778 2194 2568 2447 
Q 2359 2700 2050 2700 
Q 1728 2700 1515 2451 
Q 1303 2203 1303 1716 
z
" transform="scale(0.015625)"/>
       <path id="Arial-BoldMT-6d" d="M 394 3319 
L 1203 3319 
L 1203 2866 
Q 1638 3394 2238 3394 
Q 2556 3394 2790 3262 
Q 3025 3131 3175 2866 
Q 3394 3131 3647 3262 
Q 3900 3394 4188 3394 
Q 4553 3394 4806 3245 
Q 5059 3097 5184 2809 
Q 5275 2597 5275 2122 
L 5275 0 
L 4397 0 
L 4397 1897 
Q 4397 2391 4306 2534 
Q 4184 2722 3931 2722 
Q 3747 2722 3584 2609 
Q 3422 2497 3350 2280 
Q 3278 2063 3278 1594 
L 3278 0 
L 2400 0 
L 2400 1819 
Q 2400 2303 2353 2443 
Q 2306 2584 2207 2653 
Q 2109 2722 1941 2722 
Q 1738 2722 1575 2612 
Q 1413 2503 1342 2297 
Q 1272 2091 1272 1613 
L 1272 0 
L 394 0 
L 394 3319 
z
" transform="scale(0.015625)"/>
       <path id="Arial-BoldMT-28" d="M 1916 -1347 
L 1313 -1347 
Q 834 -625 584 153 
Q 334 931 334 1659 
Q 334 2563 644 3369 
Q 913 4069 1325 4659 
L 1925 4659 
Q 1497 3713 1336 3048 
Q 1175 2384 1175 1641 
Q 1175 1128 1270 590 
Q 1366 53 1531 -431 
Q 1641 -750 1916 -1347 
z
" transform="scale(0.015625)"/>
       <path id="Arial-BoldMT-56" d="M 1634 0 
L -3 4581 
L 1000 4581 
L 2159 1191 
L 3281 4581 
L 4263 4581 
L 2622 0 
L 1634 0 
z
" transform="scale(0.015625)"/>
       <path id="Arial-BoldMT-29" d="M 216 -1347 
Q 475 -791 581 -494 
Q 688 -197 778 190 
Q 869 578 912 926 
Q 956 1275 956 1641 
Q 956 2384 797 3048 
Q 638 3713 209 4659 
L 806 4659 
Q 1278 3988 1539 3234 
Q 1800 2481 1800 1706 
Q 1800 1053 1594 306 
Q 1359 -531 822 -1347 
L 216 -1347 
z
" transform="scale(0.015625)"/>
      </defs>
      <use xlink:href="#Arial-BoldMT-45"/>
      <use xlink:href="#Arial-BoldMT-6e" x="66.699219"/>
      <use xlink:href="#Arial-BoldMT-65" x="127.783203"/>
      <use xlink:href="#Arial-BoldMT-72" x="183.398438"/>
      <use xlink:href="#Arial-BoldMT-67" x="222.314453"/>
      <use xlink:href="#Arial-BoldMT-79" x="283.398438"/>
      <use xlink:href="#Arial-BoldMT-20" x="339.013672"/>
      <use xlink:href="#Arial-BoldMT-70" x="366.796875"/>
      <use xlink:href="#Arial-BoldMT-65" x="427.880859"/>
      <use xlink:href="#Arial-BoldMT-72" x="483.496094"/>
      <use xlink:href="#Arial-BoldMT-20" x="522.412109"/>
      <use xlink:href="#Arial-BoldMT-61" x="550.195312"/>
      <use xlink:href="#Arial-BoldMT-74" x="605.810547"/>
      <use xlink:href="#Arial-BoldMT-6f" x="639.111328"/>
      <use xlink:href="#Arial-BoldMT-6d" x="700.195312"/>
      <use xlink:href="#Arial-BoldMT-20" x="789.111328"/>
      <use xlink:href="#Arial-BoldMT-28" x="816.894531"/>
      <use xlink:href="#Arial-BoldMT-65" x="850.195312"/>
      <use xlink:href="#Arial-BoldMT-56" x="905.810547"/>
      <use xlink:href="#Arial-BoldMT-29" x="972.509766"/>
     </g>
    </g>
   </g>
   <g id="line2d_61">
    <path d="M 85.669091 278.446185 
L 106.805455 267.60024 
L 113.146364 260.585756 
L 119.487273 269.316504 
L 123.714545 265.798287 
L 127.941818 273.998151 
L 133.980779 263.920271 
L 136.24539 254.160836 
L 138.51 272.269739 
L 145.303831 174.339999 
L 152.097662 262.245238 
L 170.214545 271.323304 
L 179.272987 235.309838 
L 188.331429 242.706931 
L 200.409351 143.25022 
L 212.487273 205.039779 
L 254.76 206.460869 
L 297.032727 192.633914 
L 306.091169 130.152227 
L 315.14961 145.275563 
L 318.772987 160.763624 
L 322.396364 176.910527 
L 325.566818 128.411962 
L 328.737273 181.730436 
L 351.383377 165.336106 
L 355.912597 128.83781 
L 360.441818 165.299969 
L 363.964545 133.948404 
L 367.487273 166.418908 
L 392.146364 53.568 
" clip-path="url(#p2b3d423eb4)" style="fill: none; stroke: #376a95; stroke-width: 1.5; stroke-linecap: square"/>
   </g>
   <g id="line2d_62">
    <path d="M 85.669091 279.349587 
L 87.51164 272.409939 
L 88.740005 268.512952 
L 89.968371 265.164962 
L 91.196737 262.336346 
L 92.425103 259.997481 
L 93.653469 258.118744 
L 94.881835 256.670512 
L 96.1102 255.623163 
L 97.338566 254.947073 
L 98.566932 254.612619 
L 99.795298 254.590179 
L 101.023664 254.85013 
L 102.25203 255.36285 
L 103.480395 256.098714 
L 105.322944 257.556108 
L 107.165493 259.34895 
L 109.622224 262.088414 
L 115.764054 269.213315 
L 117.606602 271.018572 
L 119.449151 272.492763 
L 120.677517 273.24226 
L 121.905883 273.77056 
L 123.134248 274.048039 
L 124.362614 274.045074 
L 125.59098 273.732044 
L 126.819346 273.079324 
L 128.047712 272.057292 
L 129.276078 270.636326 
L 130.504443 268.786802 
L 131.732809 266.479097 
L 132.961175 263.683589 
L 134.189541 260.370655 
L 135.417907 256.510672 
L 136.646273 252.074016 
L 137.874638 247.031066 
L 139.717187 238.359132 
L 141.559736 229.48535 
L 142.788102 224.391698 
L 143.402285 222.303474 
L 144.016467 220.615181 
L 144.63065 219.397467 
L 145.244833 218.720977 
L 145.859016 218.639748 
L 146.473199 219.119042 
L 147.087382 220.094585 
L 147.701565 221.502085 
L 148.929931 225.355789 
L 150.158297 230.165814 
L 153.843394 245.434084 
L 155.685943 251.970648 
L 157.528492 257.64152 
L 159.37104 262.42973 
L 160.599406 265.123123 
L 161.827772 267.411653 
L 163.056138 269.290293 
L 164.284504 270.754013 
L 165.512869 271.797787 
L 166.741235 272.416587 
L 167.969601 272.605385 
L 169.197967 272.359154 
L 170.426333 271.672865 
L 171.654698 270.541491 
L 172.883064 268.960005 
L 174.11143 266.923378 
L 175.339796 264.426583 
L 176.568162 261.464591 
L 177.796528 258.032377 
L 179.639076 251.99174 
L 181.481625 244.941653 
L 183.938357 234.372798 
L 188.237637 214.347841 
L 191.308552 200.352685 
L 193.765283 190.241695 
L 195.607832 183.685244 
L 196.836198 179.943865 
L 198.064564 176.793669 
L 199.292929 174.309662 
L 200.521295 172.566834 
L 201.135478 171.991176 
L 201.749661 171.60463 
L 202.363844 171.396005 
L 202.978027 171.354109 
L 203.59221 171.467752 
L 204.206393 171.725743 
L 205.434759 172.630001 
L 206.663124 173.977354 
L 207.89149 175.678274 
L 209.734039 178.696743 
L 216.490051 190.480621 
L 219.560966 195.204911 
L 222.63188 199.487255 
L 225.702795 203.328236 
L 228.159526 206.083632 
L 230.616258 208.55723 
L 233.07299 210.749327 
L 235.529721 212.660224 
L 237.986453 214.290219 
L 240.443185 215.639611 
L 242.899916 216.708699 
L 245.356648 217.497782 
L 247.813379 218.00716 
L 250.270111 218.237131 
L 252.726843 218.187995 
L 255.183574 217.86005 
L 257.640306 217.253595 
L 260.097038 216.36893 
L 262.553769 215.206354 
L 265.010501 213.766165 
L 267.467233 212.048663 
L 269.923964 210.054147 
L 272.380696 207.782916 
L 274.837428 205.235268 
L 277.294159 202.411504 
L 280.365074 198.493964 
L 283.435988 194.146043 
L 286.506903 189.368324 
L 289.577817 184.161392 
L 292.648732 178.52583 
L 295.719647 172.462223 
L 299.404744 164.67282 
L 303.089842 157.017894 
L 304.93239 153.59735 
L 306.774939 150.639949 
L 308.003305 148.99671 
L 309.231671 147.665904 
L 310.460036 146.690165 
L 311.688402 146.11213 
L 312.302585 145.985576 
L 312.916768 145.974436 
L 313.530951 146.08404 
L 314.145134 146.319718 
L 314.759317 146.6868 
L 315.987683 147.828204 
L 317.216048 149.451532 
L 318.444414 151.44371 
L 320.286963 154.874393 
L 323.97206 161.918808 
L 325.200426 163.903512 
L 326.428792 165.524718 
L 327.657158 166.759399 
L 328.885524 167.633159 
L 330.11389 168.172219 
L 331.342255 168.402801 
L 332.570621 168.351129 
L 333.798987 168.043424 
L 335.027353 167.505909 
L 336.255719 166.764805 
L 338.098267 165.328784 
L 339.940816 163.582189 
L 342.397548 160.923247 
L 349.15356 153.288136 
L 350.996109 151.536611 
L 352.838657 150.094015 
L 354.067023 149.347615 
L 355.295389 148.804073 
L 356.523755 148.489611 
L 357.752121 148.430451 
L 358.980486 148.652815 
L 360.208852 149.182926 
L 361.437218 150.037623 
L 362.665584 151.166645 
L 364.508133 153.20066 
L 368.807413 158.142778 
L 370.035779 159.247075 
L 371.264145 160.068683 
L 372.49251 160.528013 
L 373.106693 160.596951 
L 373.720876 160.545472 
L 374.335059 160.363629 
L 374.949242 160.041472 
L 375.563425 159.569052 
L 376.177608 158.936421 
L 377.405974 157.150728 
L 378.63434 154.604803 
L 379.862705 151.219054 
L 381.091071 146.913893 
L 382.319437 141.609727 
L 383.547803 135.226966 
L 384.776169 127.68602 
L 386.004535 118.907297 
L 387.2329 108.811208 
L 388.461266 97.318161 
L 389.689632 84.348566 
L 391.532181 61.951541 
L 392.146364 53.661368 
L 392.146364 53.661368 
" clip-path="url(#p2b3d423eb4)" style="fill: none; stroke-dasharray: 3,4.95; stroke-dashoffset: 0; stroke: #cc1149; stroke-opacity: 0.8; stroke-width: 3"/>
   </g>
   <g id="line2d_63">
    <path d="M 144.850909 307.584 
L 144.850909 41.472 
" clip-path="url(#p2b3d423eb4)" style="fill: none; stroke-dasharray: 3.7,1.6; stroke-dashoffset: 0; stroke: #808080"/>
   </g>
   <g id="line2d_64">
    <path d="M 200.650909 307.584 
L 200.650909 41.472 
" clip-path="url(#p2b3d423eb4)" style="fill: none; stroke-dasharray: 3.7,1.6; stroke-dashoffset: 0; stroke: #808080"/>
   </g>
   <g id="line2d_65">
    <path d="M 312.250909 307.584 
L 312.250909 41.472 
" clip-path="url(#p2b3d423eb4)" style="fill: none; stroke-dasharray: 3.7,1.6; stroke-dashoffset: 0; stroke: #808080"/>
   </g>
   <g id="line2d_66">
    <path d="M 398.487273 307.584 
L 398.487273 41.472 
" clip-path="url(#p2b3d423eb4)" style="fill: none; stroke-dasharray: 3.7,1.6; stroke-dashoffset: 0; stroke: #808080"/>
   </g>
   <g id="patch_8">
    <path d="M 57.6 307.584 
L 57.6 41.472 
" style="fill: none; stroke: #000000; stroke-width: 0.8; stroke-linejoin: miter; stroke-linecap: square"/>
   </g>
   <g id="patch_9">
    <path d="M 414.72 307.584 
L 414.72 41.472 
" style="fill: none; stroke: #000000; stroke-width: 0.8; stroke-linejoin: miter; stroke-linecap: square"/>
   </g>
   <g id="patch_10">
    <path d="M 57.6 307.584 
L 414.72 307.584 
" style="fill: none; stroke: #000000; stroke-width: 0.8; stroke-linejoin: miter; stroke-linecap: square"/>
   </g>
   <g id="patch_11">
    <path d="M 57.6 41.472 
L 414.72 41.472 
" style="fill: none; stroke: #000000; stroke-width: 0.8; stroke-linejoin: miter; stroke-linecap: square"/>
   </g>
   <g id="text_16">
    <g id="patch_12">
     <path d="M 151.696364 116.130397 
L 195.59152 116.130397 
L 195.59152 99.30899 
L 151.696364 99.30899 
z
" style="fill: #d3d3d3; opacity: 0.3"/>
    </g>
    <!-- valley 1 -->
    <g transform="translate(154.996364 110.51524) scale(0.11 -0.11)">
     <defs>
      <path id="ArialMT-76" d="M 1344 0 
L 81 3319 
L 675 3319 
L 1388 1331 
Q 1503 1009 1600 663 
Q 1675 925 1809 1294 
L 2547 3319 
L 3125 3319 
L 1869 0 
L 1344 0 
z
" transform="scale(0.015625)"/>
      <path id="ArialMT-61" d="M 2588 409 
Q 2275 144 1986 34 
Q 1697 -75 1366 -75 
Q 819 -75 525 192 
Q 231 459 231 875 
Q 231 1119 342 1320 
Q 453 1522 633 1644 
Q 813 1766 1038 1828 
Q 1203 1872 1538 1913 
Q 2219 1994 2541 2106 
Q 2544 2222 2544 2253 
Q 2544 2597 2384 2738 
Q 2169 2928 1744 2928 
Q 1347 2928 1158 2789 
Q 969 2650 878 2297 
L 328 2372 
Q 403 2725 575 2942 
Q 747 3159 1072 3276 
Q 1397 3394 1825 3394 
Q 2250 3394 2515 3294 
Q 2781 3194 2906 3042 
Q 3031 2891 3081 2659 
Q 3109 2516 3109 2141 
L 3109 1391 
Q 3109 606 3145 398 
Q 3181 191 3288 0 
L 2700 0 
Q 2613 175 2588 409 
z
M 2541 1666 
Q 2234 1541 1622 1453 
Q 1275 1403 1131 1340 
Q 988 1278 909 1158 
Q 831 1038 831 891 
Q 831 666 1001 516 
Q 1172 366 1500 366 
Q 1825 366 2078 508 
Q 2331 650 2450 897 
Q 2541 1088 2541 1459 
L 2541 1666 
z
" transform="scale(0.015625)"/>
      <path id="ArialMT-6c" d="M 409 0 
L 409 4581 
L 972 4581 
L 972 0 
L 409 0 
z
" transform="scale(0.015625)"/>
      <path id="ArialMT-65" d="M 2694 1069 
L 3275 997 
Q 3138 488 2766 206 
Q 2394 -75 1816 -75 
Q 1088 -75 661 373 
Q 234 822 234 1631 
Q 234 2469 665 2931 
Q 1097 3394 1784 3394 
Q 2450 3394 2872 2941 
Q 3294 2488 3294 1666 
Q 3294 1616 3291 1516 
L 816 1516 
Q 847 969 1125 678 
Q 1403 388 1819 388 
Q 2128 388 2347 550 
Q 2566 713 2694 1069 
z
M 847 1978 
L 2700 1978 
Q 2663 2397 2488 2606 
Q 2219 2931 1791 2931 
Q 1403 2931 1139 2672 
Q 875 2413 847 1978 
z
" transform="scale(0.015625)"/>
      <path id="ArialMT-79" d="M 397 -1278 
L 334 -750 
Q 519 -800 656 -800 
Q 844 -800 956 -737 
Q 1069 -675 1141 -563 
Q 1194 -478 1313 -144 
Q 1328 -97 1363 -6 
L 103 3319 
L 709 3319 
L 1400 1397 
Q 1534 1031 1641 628 
Q 1738 1016 1872 1384 
L 2581 3319 
L 3144 3319 
L 1881 -56 
Q 1678 -603 1566 -809 
Q 1416 -1088 1222 -1217 
Q 1028 -1347 759 -1347 
Q 597 -1347 397 -1278 
z
" transform="scale(0.015625)"/>
      <path id="ArialMT-20" transform="scale(0.015625)"/>
      <path id="ArialMT-31" d="M 2384 0 
L 1822 0 
L 1822 3584 
Q 1619 3391 1289 3197 
Q 959 3003 697 2906 
L 697 3450 
Q 1169 3672 1522 3987 
Q 1875 4303 2022 4600 
L 2384 4600 
L 2384 0 
z
" transform="scale(0.015625)"/>
     </defs>
     <use xlink:href="#ArialMT-76"/>
     <use xlink:href="#ArialMT-61" x="50"/>
     <use xlink:href="#ArialMT-6c" x="105.615234"/>
     <use xlink:href="#ArialMT-6c" x="127.832031"/>
     <use xlink:href="#ArialMT-65" x="150.048828"/>
     <use xlink:href="#ArialMT-79" x="205.664062"/>
     <use xlink:href="#ArialMT-20" x="255.664062"/>
     <use xlink:href="#ArialMT-31" x="283.447266"/>
    </g>
   </g>
   <g id="text_17">
    <g id="patch_13">
     <path d="M 232.86 116.130397 
L 276.755156 116.130397 
L 276.755156 99.30899 
L 232.86 99.30899 
z
" style="fill: #d3d3d3; opacity: 0.3"/>
    </g>
    <!-- valley 2 -->
    <g transform="translate(236.16 110.51524) scale(0.11 -0.11)">
     <defs>
      <path id="ArialMT-32" d="M 3222 541 
L 3222 0 
L 194 0 
Q 188 203 259 391 
Q 375 700 629 1000 
Q 884 1300 1366 1694 
Q 2113 2306 2375 2664 
Q 2638 3022 2638 3341 
Q 2638 3675 2398 3904 
Q 2159 4134 1775 4134 
Q 1369 4134 1125 3890 
Q 881 3647 878 3216 
L 300 3275 
Q 359 3922 746 4261 
Q 1134 4600 1788 4600 
Q 2447 4600 2831 4234 
Q 3216 3869 3216 3328 
Q 3216 3053 3103 2787 
Q 2991 2522 2730 2228 
Q 2469 1934 1863 1422 
Q 1356 997 1212 845 
Q 1069 694 975 541 
L 3222 541 
z
" transform="scale(0.015625)"/>
     </defs>
     <use xlink:href="#ArialMT-76"/>
     <use xlink:href="#ArialMT-61" x="50"/>
     <use xlink:href="#ArialMT-6c" x="105.615234"/>
     <use xlink:href="#ArialMT-6c" x="127.832031"/>
     <use xlink:href="#ArialMT-65" x="150.048828"/>
     <use xlink:href="#ArialMT-79" x="205.664062"/>
     <use xlink:href="#ArialMT-20" x="255.664062"/>
     <use xlink:href="#ArialMT-32" x="283.447266"/>
    </g>
   </g>
   <g id="text_18">
    <g id="patch_14">
     <path d="M 324.169091 116.130397 
L 368.064247 116.130397 
L 368.064247 99.30899 
L 324.169091 99.30899 
z
" style="fill: #d3d3d3; opacity: 0.3"/>
    </g>
    <!-- valley 3 -->
    <g transform="translate(327.469091 110.51524) scale(0.11 -0.11)">
     <defs>
      <path id="ArialMT-33" d="M 269 1209 
L 831 1284 
Q 928 806 1161 595 
Q 1394 384 1728 384 
Q 2125 384 2398 659 
Q 2672 934 2672 1341 
Q 2672 1728 2419 1979 
Q 2166 2231 1775 2231 
Q 1616 2231 1378 2169 
L 1441 2663 
Q 1497 2656 1531 2656 
Q 1891 2656 2178 2843 
Q 2466 3031 2466 3422 
Q 2466 3731 2256 3934 
Q 2047 4138 1716 4138 
Q 1388 4138 1169 3931 
Q 950 3725 888 3313 
L 325 3413 
Q 428 3978 793 4289 
Q 1159 4600 1703 4600 
Q 2078 4600 2393 4439 
Q 2709 4278 2876 4000 
Q 3044 3722 3044 3409 
Q 3044 3113 2884 2869 
Q 2725 2625 2413 2481 
Q 2819 2388 3044 2092 
Q 3269 1797 3269 1353 
Q 3269 753 2831 336 
Q 2394 -81 1725 -81 
Q 1122 -81 723 278 
Q 325 638 269 1209 
z
" transform="scale(0.015625)"/>
     </defs>
     <use xlink:href="#ArialMT-76"/>
     <use xlink:href="#ArialMT-61" x="50"/>
     <use xlink:href="#ArialMT-6c" x="105.615234"/>
     <use xlink:href="#ArialMT-6c" x="127.832031"/>
     <use xlink:href="#ArialMT-65" x="150.048828"/>
     <use xlink:href="#ArialMT-79" x="205.664062"/>
     <use xlink:href="#ArialMT-20" x="255.664062"/>
     <use xlink:href="#ArialMT-33" x="283.447266"/>
    </g>
   </g>
   <g id="text_19">
    <g id="patch_15">
     <path d="M 88.050909 74.178501 
L 151.193097 74.178501 
L 151.193097 63.033189 
L 88.050909 63.033189 
z
" style="fill: #ffffff"/>
    </g>
    <!-- reaction trend -->
    <g transform="translate(89.050909 71.191001) scale(0.1 -0.1)">
     <defs>
      <path id="ArialMT-72" d="M 416 0 
L 416 3319 
L 922 3319 
L 922 2816 
Q 1116 3169 1280 3281 
Q 1444 3394 1641 3394 
Q 1925 3394 2219 3213 
L 2025 2691 
Q 1819 2813 1613 2813 
Q 1428 2813 1281 2702 
Q 1134 2591 1072 2394 
Q 978 2094 978 1738 
L 978 0 
L 416 0 
z
" transform="scale(0.015625)"/>
      <path id="ArialMT-63" d="M 2588 1216 
L 3141 1144 
Q 3050 572 2676 248 
Q 2303 -75 1759 -75 
Q 1078 -75 664 370 
Q 250 816 250 1647 
Q 250 2184 428 2587 
Q 606 2991 970 3192 
Q 1334 3394 1763 3394 
Q 2303 3394 2647 3120 
Q 2991 2847 3088 2344 
L 2541 2259 
Q 2463 2594 2264 2762 
Q 2066 2931 1784 2931 
Q 1359 2931 1093 2626 
Q 828 2322 828 1663 
Q 828 994 1084 691 
Q 1341 388 1753 388 
Q 2084 388 2306 591 
Q 2528 794 2588 1216 
z
" transform="scale(0.015625)"/>
      <path id="ArialMT-74" d="M 1650 503 
L 1731 6 
Q 1494 -44 1306 -44 
Q 1000 -44 831 53 
Q 663 150 594 308 
Q 525 466 525 972 
L 525 2881 
L 113 2881 
L 113 3319 
L 525 3319 
L 525 4141 
L 1084 4478 
L 1084 3319 
L 1650 3319 
L 1650 2881 
L 1084 2881 
L 1084 941 
Q 1084 700 1114 631 
Q 1144 563 1211 522 
Q 1278 481 1403 481 
Q 1497 481 1650 503 
z
" transform="scale(0.015625)"/>
      <path id="ArialMT-69" d="M 425 3934 
L 425 4581 
L 988 4581 
L 988 3934 
L 425 3934 
z
M 425 0 
L 425 3319 
L 988 3319 
L 988 0 
L 425 0 
z
" transform="scale(0.015625)"/>
      <path id="ArialMT-6f" d="M 213 1659 
Q 213 2581 725 3025 
Q 1153 3394 1769 3394 
Q 2453 3394 2887 2945 
Q 3322 2497 3322 1706 
Q 3322 1066 3130 698 
Q 2938 331 2570 128 
Q 2203 -75 1769 -75 
Q 1072 -75 642 372 
Q 213 819 213 1659 
z
M 791 1659 
Q 791 1022 1069 705 
Q 1347 388 1769 388 
Q 2188 388 2466 706 
Q 2744 1025 2744 1678 
Q 2744 2294 2464 2611 
Q 2184 2928 1769 2928 
Q 1347 2928 1069 2612 
Q 791 2297 791 1659 
z
" transform="scale(0.015625)"/>
      <path id="ArialMT-6e" d="M 422 0 
L 422 3319 
L 928 3319 
L 928 2847 
Q 1294 3394 1984 3394 
Q 2284 3394 2536 3286 
Q 2788 3178 2913 3003 
Q 3038 2828 3088 2588 
Q 3119 2431 3119 2041 
L 3119 0 
L 2556 0 
L 2556 2019 
Q 2556 2363 2490 2533 
Q 2425 2703 2258 2804 
Q 2091 2906 1866 2906 
Q 1506 2906 1245 2678 
Q 984 2450 984 1813 
L 984 0 
L 422 0 
z
" transform="scale(0.015625)"/>
      <path id="ArialMT-64" d="M 2575 0 
L 2575 419 
Q 2259 -75 1647 -75 
Q 1250 -75 917 144 
Q 584 363 401 755 
Q 219 1147 219 1656 
Q 219 2153 384 2558 
Q 550 2963 881 3178 
Q 1213 3394 1622 3394 
Q 1922 3394 2156 3267 
Q 2391 3141 2538 2938 
L 2538 4581 
L 3097 4581 
L 3097 0 
L 2575 0 
z
M 797 1656 
Q 797 1019 1065 703 
Q 1334 388 1700 388 
Q 2069 388 2326 689 
Q 2584 991 2584 1609 
Q 2584 2291 2321 2609 
Q 2059 2928 1675 2928 
Q 1300 2928 1048 2622 
Q 797 2316 797 1656 
z
" transform="scale(0.015625)"/>
     </defs>
     <use xlink:href="#ArialMT-72"/>
     <use xlink:href="#ArialMT-65" x="33.300781"/>
     <use xlink:href="#ArialMT-61" x="88.916016"/>
     <use xlink:href="#ArialMT-63" x="144.53125"/>
     <use xlink:href="#ArialMT-74" x="194.53125"/>
     <use xlink:href="#ArialMT-69" x="222.314453"/>
     <use xlink:href="#ArialMT-6f" x="244.53125"/>
     <use xlink:href="#ArialMT-6e" x="300.146484"/>
     <use xlink:href="#ArialMT-20" x="355.761719"/>
     <use xlink:href="#ArialMT-74" x="383.544922"/>
     <use xlink:href="#ArialMT-72" x="411.328125"/>
     <use xlink:href="#ArialMT-65" x="444.628906"/>
     <use xlink:href="#ArialMT-6e" x="500.244141"/>
     <use xlink:href="#ArialMT-64" x="555.859375"/>
    </g>
   </g>
   <g id="text_20">
    <g id="patch_16">
     <path d="M 174.287273 294.287488 
L 213.987273 294.287488 
L 213.987273 283.142176 
L 174.287273 283.142176 
z
" style="fill: #ffffff"/>
    </g>
    <!-- Li$_x$CoO$_2$ -->
    <g transform="translate(175.287273 291.299988) scale(0.1 -0.1)">
     <defs>
      <path id="ArialMT-4c" d="M 469 0 
L 469 4581 
L 1075 4581 
L 1075 541 
L 3331 541 
L 3331 0 
L 469 0 
z
" transform="scale(0.015625)"/>
      <path id="DejaVuSans-Oblique-78" d="M 3841 3500 
L 2234 1784 
L 3219 0 
L 2559 0 
L 1819 1388 
L 531 0 
L -166 0 
L 1556 1844 
L 641 3500 
L 1300 3500 
L 1972 2234 
L 3144 3500 
L 3841 3500 
z
" transform="scale(0.015625)"/>
      <path id="ArialMT-43" d="M 3763 1606 
L 4369 1453 
Q 4178 706 3683 314 
Q 3188 -78 2472 -78 
Q 1731 -78 1267 223 
Q 803 525 561 1097 
Q 319 1669 319 2325 
Q 319 3041 592 3573 
Q 866 4106 1370 4382 
Q 1875 4659 2481 4659 
Q 3169 4659 3637 4309 
Q 4106 3959 4291 3325 
L 3694 3184 
Q 3534 3684 3231 3912 
Q 2928 4141 2469 4141 
Q 1941 4141 1586 3887 
Q 1231 3634 1087 3207 
Q 944 2781 944 2328 
Q 944 1744 1114 1308 
Q 1284 872 1643 656 
Q 2003 441 2422 441 
Q 2931 441 3284 734 
Q 3638 1028 3763 1606 
z
" transform="scale(0.015625)"/>
      <path id="ArialMT-4f" d="M 309 2231 
Q 309 3372 921 4017 
Q 1534 4663 2503 4663 
Q 3138 4663 3647 4359 
Q 4156 4056 4423 3514 
Q 4691 2972 4691 2284 
Q 4691 1588 4409 1038 
Q 4128 488 3612 205 
Q 3097 -78 2500 -78 
Q 1853 -78 1343 234 
Q 834 547 571 1087 
Q 309 1628 309 2231 
z
M 934 2222 
Q 934 1394 1379 917 
Q 1825 441 2497 441 
Q 3181 441 3623 922 
Q 4066 1403 4066 2288 
Q 4066 2847 3877 3264 
Q 3688 3681 3323 3911 
Q 2959 4141 2506 4141 
Q 1863 4141 1398 3698 
Q 934 3256 934 2222 
z
" transform="scale(0.015625)"/>
      <path id="DejaVuSans-32" d="M 1228 531 
L 3431 531 
L 3431 0 
L 469 0 
L 469 531 
Q 828 903 1448 1529 
Q 2069 2156 2228 2338 
Q 2531 2678 2651 2914 
Q 2772 3150 2772 3378 
Q 2772 3750 2511 3984 
Q 2250 4219 1831 4219 
Q 1534 4219 1204 4116 
Q 875 4013 500 3803 
L 500 4441 
Q 881 4594 1212 4672 
Q 1544 4750 1819 4750 
Q 2544 4750 2975 4387 
Q 3406 4025 3406 3419 
Q 3406 3131 3298 2873 
Q 3191 2616 2906 2266 
Q 2828 2175 2409 1742 
Q 1991 1309 1228 531 
z
" transform="scale(0.015625)"/>
     </defs>
     <use xlink:href="#ArialMT-4c" transform="translate(0 0.140625)"/>
     <use xlink:href="#ArialMT-69" transform="translate(55.615234 0.140625)"/>
     <use xlink:href="#DejaVuSans-Oblique-78" transform="translate(78.789062 -16.265625) scale(0.7)"/>
     <use xlink:href="#ArialMT-43" transform="translate(122.949219 0.140625)"/>
     <use xlink:href="#ArialMT-6f" transform="translate(195.166016 0.140625)"/>
     <use xlink:href="#ArialMT-4f" transform="translate(250.78125 0.140625)"/>
     <use xlink:href="#DejaVuSans-32" transform="translate(329.521484 -16.265625) scale(0.7)"/>
    </g>
   </g>
   <g id="text_21">
    <g id="patch_17">
     <path d="M 235.16 180.829247 
L 279.76 180.829247 
L 279.76 169.683935 
L 235.16 169.683935 
z
" style="fill: #ffffff"/>
    </g>
    <!-- Li$_x$Co$_2$O$_3$ -->
    <g transform="translate(236.16 177.841747) scale(0.1 -0.1)">
     <defs>
      <path id="DejaVuSans-33" d="M 2597 2516 
Q 3050 2419 3304 2112 
Q 3559 1806 3559 1356 
Q 3559 666 3084 287 
Q 2609 -91 1734 -91 
Q 1441 -91 1130 -33 
Q 819 25 488 141 
L 488 750 
Q 750 597 1062 519 
Q 1375 441 1716 441 
Q 2309 441 2620 675 
Q 2931 909 2931 1356 
Q 2931 1769 2642 2001 
Q 2353 2234 1838 2234 
L 1294 2234 
L 1294 2753 
L 1863 2753 
Q 2328 2753 2575 2939 
Q 2822 3125 2822 3475 
Q 2822 3834 2567 4026 
Q 2313 4219 1838 4219 
Q 1578 4219 1281 4162 
Q 984 4106 628 3988 
L 628 4550 
Q 988 4650 1302 4700 
Q 1616 4750 1894 4750 
Q 2613 4750 3031 4423 
Q 3450 4097 3450 3541 
Q 3450 3153 3228 2886 
Q 3006 2619 2597 2516 
z
" transform="scale(0.015625)"/>
     </defs>
     <use xlink:href="#ArialMT-4c" transform="translate(0 0.140625)"/>
     <use xlink:href="#ArialMT-69" transform="translate(55.615234 0.140625)"/>
     <use xlink:href="#DejaVuSans-Oblique-78" transform="translate(78.789062 -16.265625) scale(0.7)"/>
     <use xlink:href="#ArialMT-43" transform="translate(122.949219 0.140625)"/>
     <use xlink:href="#ArialMT-6f" transform="translate(195.166016 0.140625)"/>
     <use xlink:href="#DejaVuSans-32" transform="translate(251.738281 -16.265625) scale(0.7)"/>
     <use xlink:href="#ArialMT-4f" transform="translate(299.008789 0.140625)"/>
     <use xlink:href="#DejaVuSans-33" transform="translate(377.749023 -16.265625) scale(0.7)"/>
    </g>
   </g>
   <g id="text_22">
    <g id="patch_18">
     <path d="M 275.741818 228.481709 
L 320.341818 228.481709 
L 320.341818 217.336396 
L 275.741818 217.336396 
z
" style="fill: #ffffff"/>
    </g>
    <!-- Li$_x$Co$_3$O$_4$ -->
    <g transform="translate(276.741818 225.494209) scale(0.1 -0.1)">
     <defs>
      <path id="DejaVuSans-34" d="M 2419 4116 
L 825 1625 
L 2419 1625 
L 2419 4116 
z
M 2253 4666 
L 3047 4666 
L 3047 1625 
L 3713 1625 
L 3713 1100 
L 3047 1100 
L 3047 0 
L 2419 0 
L 2419 1100 
L 313 1100 
L 313 1709 
L 2253 4666 
z
" transform="scale(0.015625)"/>
     </defs>
     <use xlink:href="#ArialMT-4c" transform="translate(0 0.140625)"/>
     <use xlink:href="#ArialMT-69" transform="translate(55.615234 0.140625)"/>
     <use xlink:href="#DejaVuSans-Oblique-78" transform="translate(78.789062 -16.265625) scale(0.7)"/>
     <use xlink:href="#ArialMT-43" transform="translate(122.949219 0.140625)"/>
     <use xlink:href="#ArialMT-6f" transform="translate(195.166016 0.140625)"/>
     <use xlink:href="#DejaVuSans-33" transform="translate(251.738281 -16.265625) scale(0.7)"/>
     <use xlink:href="#ArialMT-4f" transform="translate(299.008789 0.140625)"/>
     <use xlink:href="#DejaVuSans-34" transform="translate(377.749023 -16.265625) scale(0.7)"/>
    </g>
   </g>
   <g id="text_23">
    <g id="patch_19">
     <path d="M 331.541818 203.520896 
L 385.041818 203.520896 
L 385.041818 192.375583 
L 331.541818 192.375583 
z
" style="fill: #ffffff"/>
    </g>
    <!-- Li$_x$Co$_{13}$O$_{16}$ -->
    <g transform="translate(332.541818 200.533396) scale(0.1 -0.1)">
     <defs>
      <path id="DejaVuSans-31" d="M 794 531 
L 1825 531 
L 1825 4091 
L 703 3866 
L 703 4441 
L 1819 4666 
L 2450 4666 
L 2450 531 
L 3481 531 
L 3481 0 
L 794 0 
L 794 531 
z
" transform="scale(0.015625)"/>
      <path id="DejaVuSans-36" d="M 2113 2584 
Q 1688 2584 1439 2293 
Q 1191 2003 1191 1497 
Q 1191 994 1439 701 
Q 1688 409 2113 409 
Q 2538 409 2786 701 
Q 3034 994 3034 1497 
Q 3034 2003 2786 2293 
Q 2538 2584 2113 2584 
z
M 3366 4563 
L 3366 3988 
Q 3128 4100 2886 4159 
Q 2644 4219 2406 4219 
Q 1781 4219 1451 3797 
Q 1122 3375 1075 2522 
Q 1259 2794 1537 2939 
Q 1816 3084 2150 3084 
Q 2853 3084 3261 2657 
Q 3669 2231 3669 1497 
Q 3669 778 3244 343 
Q 2819 -91 2113 -91 
Q 1303 -91 875 529 
Q 447 1150 447 2328 
Q 447 3434 972 4092 
Q 1497 4750 2381 4750 
Q 2619 4750 2861 4703 
Q 3103 4656 3366 4563 
z
" transform="scale(0.015625)"/>
     </defs>
     <use xlink:href="#ArialMT-4c" transform="translate(0 0.140625)"/>
     <use xlink:href="#ArialMT-69" transform="translate(55.615234 0.140625)"/>
     <use xlink:href="#DejaVuSans-Oblique-78" transform="translate(78.789062 -16.265625) scale(0.7)"/>
     <use xlink:href="#ArialMT-43" transform="translate(122.949219 0.140625)"/>
     <use xlink:href="#ArialMT-6f" transform="translate(195.166016 0.140625)"/>
     <use xlink:href="#DejaVuSans-31" transform="translate(251.738281 -16.265625) scale(0.7)"/>
     <use xlink:href="#DejaVuSans-33" transform="translate(296.274414 -16.265625) scale(0.7)"/>
     <use xlink:href="#ArialMT-4f" transform="translate(343.544922 0.140625)"/>
     <use xlink:href="#DejaVuSans-31" transform="translate(422.285156 -16.265625) scale(0.7)"/>
     <use xlink:href="#DejaVuSans-36" transform="translate(466.821289 -16.265625) scale(0.7)"/>
    </g>
   </g>
   <g id="legend_1">
    <g id="patch_20">
     <path d="M 281.062969 303.084 
L 408.42 303.084 
Q 410.22 303.084 410.22 301.284 
L 410.22 263.561344 
Q 410.22 261.761344 408.42 261.761344 
L 281.062969 261.761344 
Q 279.262969 261.761344 279.262969 263.561344 
L 279.262969 301.284 
Q 279.262969 303.084 281.062969 303.084 
z
" style="fill: #ffffff; opacity: 0.8; stroke: #cccccc; stroke-linejoin: miter"/>
    </g>
    <g id="line2d_67">
     <path d="M 282.862969 268.653375 
L 291.862969 268.653375 
L 300.862969 268.653375 
" style="fill: none; stroke: #376a95; stroke-width: 1.5; stroke-linecap: square"/>
    </g>
    <g id="text_24">
     <!-- reaction potential energy -->
     <g transform="translate(308.062969 271.803375) scale(0.09 -0.09)">
      <defs>
       <path id="ArialMT-70" d="M 422 -1272 
L 422 3319 
L 934 3319 
L 934 2888 
Q 1116 3141 1344 3267 
Q 1572 3394 1897 3394 
Q 2322 3394 2647 3175 
Q 2972 2956 3137 2557 
Q 3303 2159 3303 1684 
Q 3303 1175 3120 767 
Q 2938 359 2589 142 
Q 2241 -75 1856 -75 
Q 1575 -75 1351 44 
Q 1128 163 984 344 
L 984 -1272 
L 422 -1272 
z
M 931 1641 
Q 931 1000 1190 694 
Q 1450 388 1819 388 
Q 2194 388 2461 705 
Q 2728 1022 2728 1688 
Q 2728 2322 2467 2637 
Q 2206 2953 1844 2953 
Q 1484 2953 1207 2617 
Q 931 2281 931 1641 
z
" transform="scale(0.015625)"/>
       <path id="ArialMT-67" d="M 319 -275 
L 866 -356 
Q 900 -609 1056 -725 
Q 1266 -881 1628 -881 
Q 2019 -881 2231 -725 
Q 2444 -569 2519 -288 
Q 2563 -116 2559 434 
Q 2191 0 1641 0 
Q 956 0 581 494 
Q 206 988 206 1678 
Q 206 2153 378 2554 
Q 550 2956 876 3175 
Q 1203 3394 1644 3394 
Q 2231 3394 2613 2919 
L 2613 3319 
L 3131 3319 
L 3131 450 
Q 3131 -325 2973 -648 
Q 2816 -972 2473 -1159 
Q 2131 -1347 1631 -1347 
Q 1038 -1347 672 -1080 
Q 306 -813 319 -275 
z
M 784 1719 
Q 784 1066 1043 766 
Q 1303 466 1694 466 
Q 2081 466 2343 764 
Q 2606 1063 2606 1700 
Q 2606 2309 2336 2618 
Q 2066 2928 1684 2928 
Q 1309 2928 1046 2623 
Q 784 2319 784 1719 
z
" transform="scale(0.015625)"/>
      </defs>
      <use xlink:href="#ArialMT-72"/>
      <use xlink:href="#ArialMT-65" x="33.300781"/>
      <use xlink:href="#ArialMT-61" x="88.916016"/>
      <use xlink:href="#ArialMT-63" x="144.53125"/>
      <use xlink:href="#ArialMT-74" x="194.53125"/>
      <use xlink:href="#ArialMT-69" x="222.314453"/>
      <use xlink:href="#ArialMT-6f" x="244.53125"/>
      <use xlink:href="#ArialMT-6e" x="300.146484"/>
      <use xlink:href="#ArialMT-20" x="355.761719"/>
      <use xlink:href="#ArialMT-70" x="383.544922"/>
      <use xlink:href="#ArialMT-6f" x="439.160156"/>
      <use xlink:href="#ArialMT-74" x="494.775391"/>
      <use xlink:href="#ArialMT-65" x="522.558594"/>
      <use xlink:href="#ArialMT-6e" x="578.173828"/>
      <use xlink:href="#ArialMT-74" x="633.789062"/>
      <use xlink:href="#ArialMT-69" x="661.572266"/>
      <use xlink:href="#ArialMT-61" x="683.789062"/>
      <use xlink:href="#ArialMT-6c" x="739.404297"/>
      <use xlink:href="#ArialMT-20" x="761.621094"/>
      <use xlink:href="#ArialMT-65" x="789.404297"/>
      <use xlink:href="#ArialMT-6e" x="845.019531"/>
      <use xlink:href="#ArialMT-65" x="900.634766"/>
      <use xlink:href="#ArialMT-72" x="956.25"/>
      <use xlink:href="#ArialMT-67" x="989.550781"/>
      <use xlink:href="#ArialMT-79" x="1045.166016"/>
     </g>
    </g>
    <g id="PathCollection_2">
     <g>
      <use xlink:href="#m26cb8faece" x="291.862969" y="282.386812" style="fill: #376a95; stroke: #376a95"/>
     </g>
    </g>
    <g id="text_25">
     <!-- formation energy -->
     <g transform="translate(308.062969 284.749312) scale(0.09 -0.09)">
      <defs>
       <path id="ArialMT-66" d="M 556 0 
L 556 2881 
L 59 2881 
L 59 3319 
L 556 3319 
L 556 3672 
Q 556 4006 616 4169 
Q 697 4388 901 4523 
Q 1106 4659 1475 4659 
Q 1713 4659 2000 4603 
L 1916 4113 
Q 1741 4144 1584 4144 
Q 1328 4144 1222 4034 
Q 1116 3925 1116 3625 
L 1116 3319 
L 1763 3319 
L 1763 2881 
L 1116 2881 
L 1116 0 
L 556 0 
z
" transform="scale(0.015625)"/>
       <path id="ArialMT-6d" d="M 422 0 
L 422 3319 
L 925 3319 
L 925 2853 
Q 1081 3097 1340 3245 
Q 1600 3394 1931 3394 
Q 2300 3394 2536 3241 
Q 2772 3088 2869 2813 
Q 3263 3394 3894 3394 
Q 4388 3394 4653 3120 
Q 4919 2847 4919 2278 
L 4919 0 
L 4359 0 
L 4359 2091 
Q 4359 2428 4304 2576 
Q 4250 2725 4106 2815 
Q 3963 2906 3769 2906 
Q 3419 2906 3187 2673 
Q 2956 2441 2956 1928 
L 2956 0 
L 2394 0 
L 2394 2156 
Q 2394 2531 2256 2718 
Q 2119 2906 1806 2906 
Q 1569 2906 1367 2781 
Q 1166 2656 1075 2415 
Q 984 2175 984 1722 
L 984 0 
L 422 0 
z
" transform="scale(0.015625)"/>
      </defs>
      <use xlink:href="#ArialMT-66"/>
      <use xlink:href="#ArialMT-6f" x="27.783203"/>
      <use xlink:href="#ArialMT-72" x="83.398438"/>
      <use xlink:href="#ArialMT-6d" x="116.699219"/>
      <use xlink:href="#ArialMT-61" x="200"/>
      <use xlink:href="#ArialMT-74" x="255.615234"/>
      <use xlink:href="#ArialMT-69" x="283.398438"/>
      <use xlink:href="#ArialMT-6f" x="305.615234"/>
      <use xlink:href="#ArialMT-6e" x="361.230469"/>
      <use xlink:href="#ArialMT-20" x="416.845703"/>
      <use xlink:href="#ArialMT-65" x="444.628906"/>
      <use xlink:href="#ArialMT-6e" x="500.244141"/>
      <use xlink:href="#ArialMT-65" x="555.859375"/>
      <use xlink:href="#ArialMT-72" x="611.474609"/>
      <use xlink:href="#ArialMT-67" x="644.775391"/>
      <use xlink:href="#ArialMT-79" x="700.390625"/>
     </g>
    </g>
    <g id="line2d_68">
     <path d="M 282.862969 294.54525 
L 291.862969 294.54525 
L 300.862969 294.54525 
" style="fill: none; stroke-dasharray: 3,4.95; stroke-dashoffset: 0; stroke: #cc1149; stroke-opacity: 0.8; stroke-width: 3"/>
    </g>
    <g id="text_26">
     <!-- spline fit -->
     <g transform="translate(308.062969 297.69525) scale(0.09 -0.09)">
      <defs>
       <path id="ArialMT-73" d="M 197 991 
L 753 1078 
Q 800 744 1014 566 
Q 1228 388 1613 388 
Q 2000 388 2187 545 
Q 2375 703 2375 916 
Q 2375 1106 2209 1216 
Q 2094 1291 1634 1406 
Q 1016 1563 777 1677 
Q 538 1791 414 1992 
Q 291 2194 291 2438 
Q 291 2659 392 2848 
Q 494 3038 669 3163 
Q 800 3259 1026 3326 
Q 1253 3394 1513 3394 
Q 1903 3394 2198 3281 
Q 2494 3169 2634 2976 
Q 2775 2784 2828 2463 
L 2278 2388 
Q 2241 2644 2061 2787 
Q 1881 2931 1553 2931 
Q 1166 2931 1000 2803 
Q 834 2675 834 2503 
Q 834 2394 903 2306 
Q 972 2216 1119 2156 
Q 1203 2125 1616 2013 
Q 2213 1853 2448 1751 
Q 2684 1650 2818 1456 
Q 2953 1263 2953 975 
Q 2953 694 2789 445 
Q 2625 197 2315 61 
Q 2006 -75 1616 -75 
Q 969 -75 630 194 
Q 291 463 197 991 
z
" transform="scale(0.015625)"/>
      </defs>
      <use xlink:href="#ArialMT-73"/>
      <use xlink:href="#ArialMT-70" x="50"/>
      <use xlink:href="#ArialMT-6c" x="105.615234"/>
      <use xlink:href="#ArialMT-69" x="127.832031"/>
      <use xlink:href="#ArialMT-6e" x="150.048828"/>
      <use xlink:href="#ArialMT-65" x="205.664062"/>
      <use xlink:href="#ArialMT-20" x="261.279297"/>
      <use xlink:href="#ArialMT-66" x="289.0625"/>
      <use xlink:href="#ArialMT-69" x="316.845703"/>
      <use xlink:href="#ArialMT-74" x="339.0625"/>
     </g>
    </g>
   </g>
  </g>
 </g>
 <defs>
  <clipPath id="p2b3d423eb4">
   <rect x="57.6" y="41.472" width="357.12" height="266.112"/>
  </clipPath>
 </defs>
</svg>
